<?xml version="1.0" encoding="UTF-8"?>
<svg id="_Слой_1" data-name=" Слой 1" xmlns="http://www.w3.org/2000/svg" viewBox="0 0 12 14">
  <defs>
    <style>
      .cls-1 {
        fill: #fff;
      }

      .cls-2 {
        fill: #252526;
      }

      .cls-2, .cls-3, .cls-4 {
        fill-rule: evenodd;
      }

      .cls-3 {
        fill: #2d2d30;
      }

      .cls-4 {
        fill: #1e1e1e;
      }
    </style>
  </defs>
  <g id="_Слой_2" data-name=" Слой 2">
    <path class="cls-3" d="M1.7999999523,.6999999881c-.7000000477,0-1.1000000238,.4000000358-1.1000000238,1.0999999642V12.4000005722c0,.6000003815,.3999999762,1.1000003815,1.1000000238,1.1000003815H10.5c.6999998093,0,1.1000003815-.3999996185,1.1000003815-1.1000003815V4.9000000954h-3.8000001907c-.3000001907,0-.5-.1999998093-.5-.5V.6999999881H1.7999999523Z"/>
    <polygon class="cls-2" points="7.8000001907 1.2999999523 10.6000003815 4.0999999046 7.8000001907 4.0999999046 7.8000001907 1.2999999523"/>
  </g>
  <g id="_Слой_1-2" data-name=" Слой 1-2">
    <path class="cls-4" d="M0,2C0,.8999999762,.8999999762,0,2,0H7.5c.0999999046,0,.3000001907,.1000000015,.4000000954,.1000000015l3.9999995232,3.9999999031c0,.0999999046,.1000003815,.3000001907,.1000003815,.4000000954v7.5c0,1.1000003815-.8999996185,2-2,2H2c-1.1000000238,0-2-.8999996185-2-2V2ZM2,1c-.6000000238,0-1,.3999999762-1,1V12c0,.6000003815,.3999999762,1,1,1H10c.6000003815,0,1-.3999996185,1-1V5h-3.5c-.3000001907,0-.5-.1999998093-.5-.5V1H2Zm6,.7000000477l2.3000001907,2.2999999523h-2.3000001907V1.7000000477Z"/>
  </g>
  <g>
    <path class="cls-1" d="M4.1142578125,9.61328125l-.2919921875-.8505859375h-1.2109375l-.2880859375,.8505859375h-.611328125l1.1787109375-3.2265625h.6572265625l1.1787109375,3.2265625h-.6123046875Zm-.7197265625-2.1733398438c-.01171875-.0419921875-.0302734375-.0991210938-.0537109375-.1713867188-.0244140625-.0717773438-.0478515625-.1459960938-.0703125-.22265625-.0224609375-.076171875-.0390625-.1401367188-.0517578125-.1909179688-.0146484375,.0600585938-.033203125,.12890625-.0556640625,.20703125-.0224609375,.0776367188-.0439453125,.1513671875-.0634765625,.2202148438-.01953125,.0693359375-.03515625,.1215820312-.046875,.1577148438l-.283203125,.8276367188h.904296875l-.279296875-.8276367188Z"/>
    <path class="cls-1" d="M6.9765625,9.61328125h-1.8271484375v-3.212890625h1.8271484375v.4814453125h-1.2509765625v.8188476562h1.169921875v.4809570312h-1.169921875v.9453125h1.2509765625v.486328125Z"/>
    <path class="cls-1" d="M10.2880859375,7.9750976562c0,.3608398438-.068359375,.6616210938-.2041015625,.9047851562-.13671875,.2431640625-.3330078125,.42578125-.58984375,.548828125s-.56640625,.1845703125-.9287109375,.1845703125h-.9052734375v-3.212890625h.9990234375c.3330078125,0,.62109375,.0600585938,.8642578125,.1796875,.2431640625,.1201171875,.431640625,.2963867188,.564453125,.5288085938,.1337890625,.2329101562,.2001953125,.521484375,.2001953125,.8662109375Zm-.6025390625,.0180664062c0-.2548828125-.0390625-.46484375-.1171875-.6298828125s-.193359375-.287109375-.3466796875-.3666992188c-.15234375-.0795898438-.33984375-.119140625-.5625-.119140625h-.4228515625v2.2543945312h.3466796875c.3720703125,0,.6484375-.0947265625,.830078125-.2861328125,.181640625-.189453125,.2724609375-.474609375,.2724609375-.8525390625Z"/>
  </g>
</svg>